<?xml version="1.0" encoding="UTF-8"?>
<svg xmlns="http://www.w3.org/2000/svg" xmlns:xlink="http://www.w3.org/1999/xlink" width="64pt" height="64pt" viewBox="0 0 64 64" version="1.1">
<defs>
<linearGradient id="linear0" gradientUnits="userSpaceOnUse" x1="47.0005" y1="613.2947" x2="47.0005" y2="559.1151" spreadMethod="reflect" gradientTransform="matrix(1,0,0,-1,0,618)">
<stop offset="0" style="stop-color:#1A6DFF;stop-opacity:1;"/>
<stop offset="1" style="stop-color:#C822FF;stop-opacity:1;"/>
</linearGradient>
<linearGradient id="linear1" gradientUnits="userSpaceOnUse" x1="47" y1="612.3333" x2="47" y2="561.1656" spreadMethod="reflect" gradientTransform="matrix(1,0,0,-1,0,618)">
<stop offset="0" style="stop-color:#1A6DFF;stop-opacity:1;"/>
<stop offset="1" style="stop-color:#C822FF;stop-opacity:1;"/>
</linearGradient>
<linearGradient id="linear2" gradientUnits="userSpaceOnUse" x1="47" y1="612.3333" x2="47" y2="561.1656" spreadMethod="reflect" gradientTransform="matrix(1,0,0,-1,0,618)">
<stop offset="0" style="stop-color:#1A6DFF;stop-opacity:1;"/>
<stop offset="1" style="stop-color:#C822FF;stop-opacity:1;"/>
</linearGradient>
<linearGradient id="linear3" gradientUnits="userSpaceOnUse" x1="47.0001" y1="592.7223" x2="47.0001" y2="565.9689" spreadMethod="reflect" gradientTransform="matrix(1,0,0,-1,0,618)">
<stop offset="0" style="stop-color:#6DC7FF;stop-opacity:1;"/>
<stop offset="1" style="stop-color:#E6ABFF;stop-opacity:1;"/>
</linearGradient>
<linearGradient id="linear4" gradientUnits="userSpaceOnUse" x1="17.0011" y1="612.3532" x2="17.0011" y2="558.1752" spreadMethod="reflect" gradientTransform="matrix(1,0,0,-1,0,618)">
<stop offset="0" style="stop-color:#1A6DFF;stop-opacity:1;"/>
<stop offset="1" style="stop-color:#C822FF;stop-opacity:1;"/>
</linearGradient>
<linearGradient id="linear5" gradientUnits="userSpaceOnUse" x1="17" y1="610.3333" x2="17" y2="559.1656" spreadMethod="reflect" gradientTransform="matrix(1,0,0,-1,0,618)">
<stop offset="0" style="stop-color:#1A6DFF;stop-opacity:1;"/>
<stop offset="1" style="stop-color:#C822FF;stop-opacity:1;"/>
</linearGradient>
<linearGradient id="linear6" gradientUnits="userSpaceOnUse" x1="17" y1="610.3333" x2="17" y2="559.1656" spreadMethod="reflect" gradientTransform="matrix(1,0,0,-1,0,618)">
<stop offset="0" style="stop-color:#1A6DFF;stop-opacity:1;"/>
<stop offset="1" style="stop-color:#C822FF;stop-opacity:1;"/>
</linearGradient>
<linearGradient id="linear7" gradientUnits="userSpaceOnUse" x1="16.9999" y1="606.3622" x2="16.9999" y2="579.4583" spreadMethod="reflect" gradientTransform="matrix(1,0,0,-1,0,618)">
<stop offset="0" style="stop-color:#6DC7FF;stop-opacity:1;"/>
<stop offset="1" style="stop-color:#E6ABFF;stop-opacity:1;"/>
</linearGradient>
</defs>
<g id="surface1">
<path style=" stroke:none;fill-rule:nonzero;fill:url(#linear0);" d="M 47 57.976563 C 45.984375 57.976563 45.054688 57.460938 44.511719 56.601563 L 37.320313 45.148438 C 36.914063 44.507813 36.894531 43.695313 37.261719 43.03125 C 37.617188 42.382813 38.261719 42 38.984375 42 L 42 42 L 42 24 C 42 22.894531 42.898438 22 44 22 L 50 22 C 51.101563 22 52 22.894531 52 24 L 52 42 L 55.019531 42 C 55.738281 42 56.382813 42.386719 56.738281 43.03125 C 57.105469 43.695313 57.085938 44.507813 56.679688 45.148438 L 49.488281 56.601563 C 48.945313 57.460938 48.015625 57.976563 47 57.976563 Z M 38.996094 44 C 39.003906 44.011719 38.988281 44.046875 39.011719 44.085938 L 46.203125 55.535156 C 46.453125 55.933594 46.84375 55.976563 47 55.976563 C 47.152344 55.976563 47.542969 55.933594 47.792969 55.535156 L 54.984375 44.085938 C 55.007813 44.050781 54.996094 44.019531 54.988281 44 L 50 44 L 50 24 L 44 24 L 44 44 Z "/>
<path style=" stroke:none;fill-rule:nonzero;fill:url(#linear1);" d="M 52 18 C 52 19.105469 51.105469 20 50 20 L 44 20 C 42.894531 20 42 19.105469 42 18 L 42 16 C 42 14.894531 42.894531 14 44 14 L 50 14 C 51.105469 14 52 14.894531 52 16 Z M 44 16 L 44 18 L 50 18 L 50 16 Z "/>
<path style=" stroke:none;fill-rule:nonzero;fill:url(#linear2);" d="M 52 10 C 52 11.105469 51.105469 12 50 12 L 44 12 C 42.894531 12 42 11.105469 42 10 L 42 8 C 42 6.894531 42.894531 6 44 6 L 50 6 C 51.105469 6 52 6.894531 52 8 Z M 44 8 L 44 10 L 50 10 L 50 8 Z "/>
<path style=" stroke:none;fill-rule:nonzero;fill:url(#linear3);" d="M 48 46 L 48 26 L 46 26 L 46 46 L 43.859375 46 C 43.476563 46 43.238281 46.414063 43.425781 46.746094 L 46.136719 51.484375 C 46.515625 52.15625 47.484375 52.15625 47.863281 51.484375 L 50.574219 46.746094 C 50.761719 46.414063 50.523438 46 50.140625 46 Z "/>
<path style=" stroke:none;fill-rule:nonzero;fill:url(#linear4);" d="M 20 42 L 14 42 C 12.898438 42 12 41.09375 12 39.976563 L 12 22 L 8.984375 22 C 8.265625 22 7.621094 21.613281 7.265625 20.96875 C 6.894531 20.296875 6.914063 19.480469 7.320313 18.835938 L 14.511719 7.382813 C 15.054688 6.519531 15.984375 6.003906 17.003906 6.003906 C 18.019531 6.003906 18.949219 6.519531 19.488281 7.378906 L 26.683594 18.839844 C 27.085938 19.484375 27.109375 20.300781 26.738281 20.96875 C 26.382813 21.613281 25.738281 22 25.019531 22 L 22 22 L 22 39.976563 C 22 41.09375 21.101563 42 20 42 Z M 13 20 L 14 20 L 14 39.976563 L 20 40 L 20 20 L 24.984375 20 C 24.996094 19.980469 25.011719 19.941406 24.984375 19.902344 L 17.792969 8.441406 C 17.546875 8.046875 17.15625 8.003906 17.003906 8.003906 C 16.84375 8.003906 16.453125 8.046875 16.203125 8.445313 L 9.015625 19.898438 C 8.980469 19.953125 9.019531 20.007813 9.023438 20.015625 Z "/>
<path style=" stroke:none;fill-rule:nonzero;fill:url(#linear5);" d="M 22 48 C 22 49.105469 21.105469 50 20 50 L 14 50 C 12.894531 50 12 49.105469 12 48 L 12 46 C 12 44.894531 12.894531 44 14 44 L 20 44 C 21.105469 44 22 44.894531 22 46 Z M 20 46 L 14 46 L 14 48 L 20 48 Z "/>
<path style=" stroke:none;fill-rule:nonzero;fill:url(#linear6);" d="M 22 56 C 22 57.105469 21.105469 58 20 58 L 14 58 C 12.894531 58 12 57.105469 12 56 L 12 54 C 12 52.894531 12.894531 52 14 52 L 20 52 C 21.105469 52 22 52.894531 22 54 Z M 20 54 L 14 54 L 14 56 L 20 56 Z "/>
<path style=" stroke:none;fill-rule:nonzero;fill:url(#linear7);" d="M 18 18 L 18 38 L 16 38 L 16 18 L 13.867188 18 C 13.476563 18 13.234375 17.578125 13.425781 17.242188 L 16.136719 12.492188 C 16.519531 11.824219 17.484375 11.824219 17.863281 12.492188 L 20.574219 17.242188 C 20.765625 17.578125 20.523438 18 20.132813 18 Z "/>
</g>
</svg>
